# xmcd
#
# Track frame offsets:
# 150
# 25845
# 44573
# 57249
# 85274
# 102626
# 126198
# 143288
# 153310
# 168787
# 178310
# 208943
# 229740
# 259949
# 267591
# 281053
# 298177
# 312623
#
# Disc length: 4285 seconds
#
#
# Revision: 0
# Processed by: cddbd v1.5.2PL0 Copyright (c) Steve Scherf et al.
# Submitted via: FreeRIP 2.96 
#
DISCID=1810bb12
DTITLE=Rita Mae Brown - Mord auf Rezept CD2v4
DYEAR=2002
DGENRE=Speech
TTITLE0=19 Mord auf Rezept
TTITLE1=20 Mord auf Rezept
TTITLE2=21 Mord auf Rezept
TTITLE3=22 Mord auf Rezept
TTITLE4=23 Mord auf Rezept
TTITLE5=24 Mord auf Rezept
TTITLE6=25 Mord auf Rezept
TTITLE7=26 Mord auf Rezept
TTITLE8=27 Mord auf Rezept
TTITLE9=28 Mord auf Rezept
TTITLE10=29 Mord auf Rezept
TTITLE11=30 Mord auf Rezept
TTITLE12=31 Mord auf Rezept
TTITLE13=32 Mord auf Rezept
TTITLE14=33 Mord auf Rezept
TTITLE15=34 Mord auf Rezept
TTITLE16=35 Mord auf Rezept
TTITLE17=36 Mord auf Rezept
EXTD=gelesen von Kornelia Boje
EXTT0=
EXTT1=
EXTT2=
EXTT3=
EXTT4=
EXTT5=
EXTT6=
EXTT7=
EXTT8=
EXTT9=
EXTT10=
EXTT11=
EXTT12=
EXTT13=
EXTT14=
EXTT15=
EXTT16=
EXTT17=
PLAYORDER=
